<?xml version="1.0"?>
<!--Icons from directory ""-->
<svg xmlns="http://www.w3.org/2000/svg" width="153" height="475" viewBox="0 0 153 475"><svg width="31" viewBox="0 0 31.375 31.4" height="31" id="footer-contacts_twitter" y="0"><defs><style>.cls-1 {        fill: #fff;        fill-rule: evenodd;        opacity: 0.8;      }</style></defs><path id="footer-contacts_twitter-&#x422;&#x432;&#x438;&#x442;&#x435;&#x440;" d="m38.427 2355.2a15.69 15.69 0 1 1 -15.692 15.69 15.688 15.688 0 0 1 15.692 -15.7zm9.137 10.81a7.331 7.331 0 0 1 -2.092 0.57 3.663 3.663 0 0 0 1.6 -2.02 7.4 7.4 0 0 1 -2.313 0.89 3.645 3.645 0 0 0 -6.207 3.32 10.316 10.316 0 0 1 -7.507 -3.81 3.655 3.655 0 0 0 1.127 4.87 3.68 3.68 0 0 1 -1.65 -0.46v0.05a3.651 3.651 0 0 0 2.922 3.57 3.788 3.788 0 0 1 -0.959 0.13 3.859 3.859 0 0 1 -0.685 -0.07 3.643 3.643 0 0 0 3.4 2.53 7.29 7.29 0 0 1 -4.524 1.56 8.286 8.286 0 0 1 -0.869 -0.05 10.354 10.354 0 0 0 15.946 -8.73c0-0.16 0-0.31-0.011-0.47a7.328 7.328 0 0 0 1.823 -1.8z" transform="translate(-22.75 -2355.2)" class="cls-1"/></svg><svg width="31" viewBox="0 0 31.375 31.41" height="31" id="footer-contacts_vk" y="31"><defs><style>.cls-1 {        fill: #fff;        fill-rule: evenodd;        opacity: 0.8;      }</style></defs><path id="footer-contacts_vk-&#x412;&#x41A;" d="m185.86 2355.2a15.69 15.69 0 1 1 -15.692 15.69 15.687 15.687 0 0 1 15.69 -15.7zm5.968 18.25a3.1 3.1 0 0 0 -0.758 -2.2 3.7 3.7 0 0 0 -2.016 -1.09v-0.07a2.881 2.881 0 0 0 1.371 -1.14 3.211 3.211 0 0 0 0.5 -1.77 3.133 3.133 0 0 0 -0.362 -1.52 2.6 2.6 0 0 0 -1.091 -1.05 4.514 4.514 0 0 0 -1.446 -0.48 17.993 17.993 0 0 0 -2.269 -0.11h-4.8v13.59h5.44a8.906 8.906 0 0 0 2.331 -0.25 4.774 4.774 0 0 0 1.686 -0.86 3.583 3.583 0 0 0 1.032 -1.27 3.909 3.909 0 0 0 0.384 -1.78zm-4.373-5.59a1.5 1.5 0 0 0 -0.169 -0.67 1 1 0 0 0 -0.527 -0.5 2.11 2.11 0 0 0 -0.8 -0.17c-0.309 0-0.767-0.01-1.375-0.01h-0.237v2.88h0.43c0.583 0 0.994-0.01 1.229-0.02a2.045 2.045 0 0 0 0.726 -0.19 1.129 1.129 0 0 0 0.563 -0.53 1.9 1.9 0 0 0 0.157 -0.79zm0.856 5.53a1.673 1.673 0 0 0 -0.255 -0.99 1.533 1.533 0 0 0 -0.767 -0.54 2.658 2.658 0 0 0 -0.853 -0.13c-0.362-0.01-0.848-0.01-1.456-0.01h-0.63v3.4h0.184c0.888 0 1.5 0 1.843-0.02a2.867 2.867 0 0 0 1.04 -0.24 1.381 1.381 0 0 0 0.68 -0.59 1.813 1.813 0 0 0 0.23 -0.8z" transform="translate(-170.19 -2355.2)" class="cls-1"/></svg><svg width="108" viewBox="0 0 107.625 36.69" height="37" id="footer-copyright_logo" y="62"><defs><style>.cls-1 {        fill: #fff;        fill-rule: evenodd;      }</style></defs><path id="footer-copyright_logo-&#x41B;&#x43E;&#x433;&#x43E;" d="m736.6 2379.3a2.025 2.025 0 0 0 0.553 -0.1v1.33a3.2 3.2 0 0 1 -1.175 0.21 1.665 1.665 0 0 1 -1.66 -0.97 4.8 4.8 0 0 1 -3.128 1.07c-1.5 0-2.9-0.83-2.9-2.54 0-2.13 1.97-2.78 3.7-2.78a10.9 10.9 0 0 1 2.161 0.24v-0.29c0-1.04-0.761-1.77-2.178-1.77a7.359 7.359 0 0 0 -2.99 0.64v-1.69a10.024 10.024 0 0 1 3.18 -0.55c2.351 0 3.837 1.12 3.837 3.63v2.97a0.537 0.537 0 0 0 0.605 0.6m-6.412-1.12a1.353 1.353 0 0 0 1.555 1.23 3.365 3.365 0 0 0 2.4 -0.99v-1.3a9.994 9.994 0 0 0 -1.8 -0.21c-1.054 0-2.16 0.33-2.16 1.37m12.305-6.08a4.944 4.944 0 0 1 2.558 0.64v1.69a4.075 4.075 0 0 0 -2.3 -0.69 2.737 2.737 0 1 0 -0.034 5.46 4.985 4.985 0 0 0 2.419 -0.64v1.71a6.245 6.245 0 0 1 -2.748 0.57 4.188 4.188 0 0 1 -4.476 -4.3 4.3 4.3 0 0 1 4.58 -4.44m12.115 7.2a2.025 2.025 0 0 0 0.553 -0.1v1.33a3.189 3.189 0 0 1 -1.175 0.21 1.665 1.665 0 0 1 -1.659 -0.97 4.8 4.8 0 0 1 -3.128 1.07c-1.5 0-2.9-0.83-2.9-2.54 0-2.13 1.971-2.78 3.7-2.78a10.9 10.9 0 0 1 2.16 0.24v-0.29c0-1.04-0.76-1.77-2.178-1.77a7.354 7.354 0 0 0 -2.989 0.64v-1.69a10.018 10.018 0 0 1 3.18 -0.55c2.35 0 3.836 1.12 3.836 3.63v2.97a0.537 0.537 0 0 0 0.605 0.6m-6.412-1.12a1.353 1.353 0 0 0 1.556 1.23 3.365 3.365 0 0 0 2.4 -0.99v-1.1a9.993 9.993 0 0 0 -1.8 -0.21c-1.055 0-2.161 0.33-2.161 1.37m16.678-9.66v12.1h-1.659v-1.32a3.868 3.868 0 0 1 -3.18 1.54 4.378 4.378 0 0 1 0 -8.74 3.86 3.86 0 0 1 2.99 1.29v-4.87h1.849zm-4.511 5.2a2.756 2.756 0 0 0 0 5.5 2.881 2.881 0 0 0 2.644 -1.75v-2.02a2.9 2.9 0 0 0 -2.644 -1.73m10.508-1.62c3.3 0 4.442 2.66 3.906 5.06h-6.239c0.208 1.49 1.659 2.11 3.18 2.11a6.013 6.013 0 0 0 2.627 -0.59v1.59a7.164 7.164 0 0 1 -2.973 0.57c-2.54 0-4.7-1.45-4.7-4.37a4.155 4.155 0 0 1 4.2 -4.37m0.087 1.53a2.269 2.269 0 0 0 -2.437 2.15h4.6a1.96 1.96 0 0 0 -2.16 -2.15m5.7 6.99v-8.3h1.63v1.04a3.8 3.8 0 0 1 2.765 -1.26 2.816 2.816 0 0 1 2.592 1.33 4.089 4.089 0 0 1 2.9 -1.33 3.042 3.042 0 0 1 3.145 3.33v5.19h-1.849v-5.14a1.578 1.578 0 0 0 -1.642 -1.74 2.775 2.775 0 0 0 -2.056 1.12c0.017 0.19 0.034 0.38 0.034 0.57v5.19h-1.849v-5.14a1.578 1.578 0 0 0 -1.642 -1.74 2.927 2.927 0 0 0 -2.2 1.28v5.6h-1.849zm21.206-8.3h1.92l-3.888 9.42c-0.9 2.16-2.074 2.89-3.336 2.89a5.1 5.1 0 0 1 -1.089 -0.14v-1.58a2.772 2.772 0 0 0 0.847 0.13c0.9 0 1.573-0.64 2.057-1.94l0.173-0.41-3.941-8.37h1.98l2.8 6.26zm-67.134-18.33v4.72a3.782 3.782 0 0 1 2.678 -1.14 3.231 3.231 0 0 1 3.422 3.39v5.13h-1.849v-4.89a1.8 1.8 0 0 0 -1.935 -1.99 2.906 2.906 0 0 0 -2.316 1.39v5.49h-1.85v-12.1h1.85zm11.164 0.85v2.96h3.008v1.62h-3.02v3.8c0 1.09 0.5 1.45 1.573 1.45a4.6 4.6 0 0 0 1.676 -0.32v1.59a6.9 6.9 0 0 1 -2.229 0.36 2.542 2.542 0 0 1 -2.852 -2.73v-4.15h-1.49v-1.62h1.486v-2.51zm5.374 11.25v-8.29h1.642v1.03a3.8 3.8 0 0 1 2.765 -1.26 2.837 2.837 0 0 1 2.593 1.33 4.124 4.124 0 0 1 2.9 -1.33 3.05 3.05 0 0 1 3.146 3.34v5.18h-1.85v-5.13a1.585 1.585 0 0 0 -1.642 -1.75 2.787 2.787 0 0 0 -2.056 1.13c0.017 0.19 0.035 0.38 0.035 0.57v5.18h-1.85v-5.13a1.585 1.585 0 0 0 -1.642 -1.75 2.956 2.956 0 0 0 -2.2 1.28v5.6h-1.849zm15.754 0h1.849v-12.1h-1.849v12.1zm-56.2-13.52-0.152-0.02-14.484 1.52v26.55l14.484 8.61 14.484-8.61v-26.55zm12.438 26.97-12.59 7.49-12.589-7.49v-10.88l12.535 7.46 0.021 1.35-8.6-5.12-0.013 1.32 8.634 5.18 0.021 1.39-8.631-5.13-0.012 1.31 8.633 5.19 8.716-5.22v-1.31h-0.01v-4.29l3.884-2.31v11.06zm-0.011-12.48-3.444 2.03-1.59 0.94-7.582-4.51-0.013 1.31 6.481 3.86-0.057 0.03-0.14 0.08-0.92 0.54-5.351-3.18-0.013 1.31 4.224 2.52-1 0.66-0.024 0.02-3.19-1.88-0.013 1.31 2.094 1.23-2.133 1.28-12.473-7.41 12.491-7.51zm0.011-1.32-12.658-7.46l-12.518 7.45v-9.95l12.589-1.32 12.59 1.32v9.96z" transform="translate(-692.19 -2352.5)" class="cls-1"/></svg><svg width="15" viewBox="0 0 14.562 12.66" height="13" id="footer-menu_heart" y="99"><defs><style>.cls-1 {        fill: #f7f8f8;        fill-rule: evenodd;      }</style></defs><path id="footer-menu_heart-&#x421;&#x435;&#x440;&#x434;&#x446;&#x435;" d="m284.61 2365.7s7.285-3.6 7.285-8.22c0-5.13-5.5-5.94-7.3-1.71m0.049 9.93s-7.285-3.6-7.285-8.22c0-5.13 5.5-5.94 7.3-1.71" transform="translate(-277.34 -2353.1)" class="cls-1"/></svg><svg width="20" viewBox="0 0 20.063 19" height="19" id="mail-header_login-hover" y="112"><defs><style>.cls-1 {        fill: #353535;        fill-opacity: 0.99;        fill-rule: evenodd;      }</style></defs><path id="mail-header_login-hover-&#x412;&#x445;&#x43E;&#x434;_copy" d="m522 655.97v-0.961a3 3 0 0 1 3 -3h11.059a3 3 0 0 1 3 3v12.977a3 3 0 0 1 -3 3h-11.06a3 3 0 0 1 -3 -3v-0.99h2v2h13v-15h-13v1.969h-2zm-3 8.046h6.029v2.743l7.027-5.3-7.027-5.3v2.74h-6.03v5.114z" class="cls-1" transform="translate(-519 -652)" data-name="&#x412;&#x445;&#x43E;&#x434; copy"/></svg><svg width="20" viewBox="0 0 20.063 19" height="19" id="mail-header_login" y="131"><defs><style>.cls-1 {        fill: #fff;        fill-opacity: 0.99;        fill-rule: evenodd;      }</style></defs><path id="mail-header_login-&#x412;&#x445;&#x43E;&#x434;" d="m680 32.969v-0.96a3 3 0 0 1 3 -3h11.059a3 3 0 0 1 3 3v12.977a3 3 0 0 1 -3 3h-11.06a3 3 0 0 1 -3 -3v-0.986h2v2h13v-15h-13v1.969h-2zm-3 8.046h6.029v2.743l7.027-5.3-7.027-5.3v2.742h-6.03v5.114z" transform="translate(-677 -29)" class="cls-1"/></svg><svg width="21" viewBox="0 0 20.63 19.719" height="20" id="main-header_cart-full" y="150"><defs><style>.cls-1 {        fill: #343434;        fill-rule: evenodd;      }</style></defs><path id="main-header_cart-full-&#x41A;&#x43E;&#x440;&#x437;&#x438;&#x43D;&#x430;" d="m1083.6 656.46l-1.21 8.912a2.025 2.025 0 0 1 -1.88 1.635h-10.88a2.025 2.025 0 0 1 -1.88 -1.635l-1.47-10.287a3.733 3.733 0 0 1 -0.13 -1.054h-2.1a1 1 0 1 1 0 -2h4a0.992 0.992 0 0 1 0.1 1.979h13.97c1.1 0.01 1.7 1.14 1.5 2.46zm-13.85 8.518-1.31-9h13.2l-0.03 0.2-1.18 8.788a0.034 0.034 0 0 0 -0.01 0.014h-10.67zm0.52 3.009a1.874 1.874 0 1 1 -1.88 1.874 1.874 1.874 0 0 1 1.8 -1.87zm9 0a1.874 1.874 0 1 1 -1.88 1.874 1.874 1.874 0 0 1 1.8 -1.87z" transform="translate(-1063 -652.03)" class="cls-1"/></svg><svg width="21" viewBox="0 0 20.625 19.719" height="20" id="main-header_cart" y="170"><defs><style>.cls-1 {        fill: #fff;        fill-rule: evenodd;      }</style></defs><path id="main-header_cart-&#x41A;&#x43E;&#x440;&#x437;&#x438;&#x43D;&#x430;" d="m799.58 33.46l-1.2 8.912a2.033 2.033 0 0 1 -1.882 1.635h-10.89a2.028 2.028 0 0 1 -1.879 -1.635l-1.469-10.287a3.668 3.668 0 0 1 -0.137 -1.055h-2.12a1 1 0 0 1 0 -2h4a1 1 0 0 1 1 1 0.99 0.99 0 0 1 -0.9 0.979h13.965c1.11 0.001 1.78 1.132 1.52 2.451zm-13.845 8.518-1.313-9h13.206s-0.031 0.2-0.031 0.2l-1.186 8.788c-0.008 0.011-0.009 0.014 0 0.014h-10.69zm0.515 3.009a1.874 1.874 0 1 1 -1.875 1.874 1.874 1.874 0 0 1 1.87 -1.874zm9 0a1.874 1.874 0 1 1 -1.875 1.874 1.874 1.874 0 0 1 1.87 -1.874z" transform="translate(-779 -29.031)" class="cls-1"/></svg><svg width="153" viewBox="0 0 153.094 63.25" height="63" id="main-header_logo" y="190"><defs><style>.cls-1 {        fill: #fff;        fill-rule: evenodd;      }</style></defs><path id="main-header_logo-Logo" d="m165.25 54.327c-1.742-1.855-4.228-2.08-7-2.08h-0.236a13.544 13.544 0 0 0 -8.977 -4.4c-3.5-0.227-6.363-0.226-8.835 0.831 0.083-0.669 0.152-1.546 0.209-2.225a4.276 4.276 0 0 0 1.635 0.211c3.068 0 6.287-2.584 6.567-8.248 0.133-3.125-0.38-5.411-1.485-6.564a2.663 2.663 0 0 0 -1.943 -0.867c-1.646 0-3.188 1.443-4.394 4.056 0-0.286-0.007-0.539-0.011-0.77-0.008-0.478-0.015-0.872-0.015-1.314 0-1.105-0.053-1.731-1.137-1.731a1.533 1.533 0 0 0 -1.081 0.479 2.559 2.559 0 0 0 -0.606 1.94c0.027 1.384 0.032 2.785 0.017 4.281-0.5 2.245-1.406 4.011-2.34 4.7a17.469 17.469 0 0 0 1.113 -4.254c0.416-3.023-0.042-5.638-1.227-7a2.1 2.1 0 0 0 -1.986 -0.819 3.606 3.606 0 0 0 -2.11 1.259 0.941 0.941 0 0 0 -1.251 -0.341c-2.581 1.022-4.222 4.027-4.39 8.038a8.056 8.056 0 0 0 1.886 5.988 4.312 4.312 0 0 0 3.153 1.4 4.586 4.586 0 0 0 3.656 -2.164 4.578 4.578 0 0 0 3.352 -2.005c-0.119 2.493-0.31 4.939-0.566 7.3a17.973 17.973 0 0 0 -5.192 6.54c-1.982 3.934-1.764 7.546-0.722 9.239a2.032 2.032 0 0 0 1.677 1.114c3.089 0 5.571-8.574 6.778-16.015a14.871 14.871 0 0 1 8.432 -1.97 11.58 11.58 0 0 1 6.81 2.184 8.433 8.433 0 0 0 -5.887 7.093 5.582 5.582 0 0 0 1.123 4.43 4.185 4.185 0 0 0 3.51 1.395 6.062 6.062 0 0 0 4.354 -2.008 8.591 8.591 0 0 0 1.849 -6.372 9.2 9.2 0 0 0 -0.605 -2.767c3.908 0.639 6.258 3.985 6.055 8.758a10.014 10.014 0 0 1 -9.894 9.407c-3 0-5.2-0.733-6.357-2.12a4.525 4.525 0 0 1 -0.873 -3.772c0.029-0.144 0.058-0.269 0.083-0.378a1.043 1.043 0 0 0 -0.052 -0.951 0.644 0.644 0 0 0 -0.531 -0.237 1.733 1.733 0 0 0 -0.386 0.055 3.443 3.443 0 0 0 -2.479 3.194c0 2.938 3.13 6.1 10 6.1 7.138 0 12.435-4.329 12.885-11.1a9.516 9.516 0 0 0 -2.57 -7.52zm-34.96-20.538a12.458 12.458 0 0 0 -0.58 5.411 6.582 6.582 0 0 0 2.586 4.921 1.721 1.721 0 0 1 -0.858 0.255 1.7 1.7 0 0 1 -1.183 -0.592 6.594 6.594 0 0 1 -1.286 -4.741 10.553 10.553 0 0 1 1.32 -5.254zm4.381 4.738a9.742 9.742 0 0 1 -1.008 4.131c-1.171-0.72-1.665-2.5-1.726-3.915-0.126-2.523 0.94-4.694 1.789-4.938a0.339 0.339 0 0 1 0.2 0.126c0.48 0.498 0.91 2.148 0.76 4.597zm7.328 6.1a2.2 2.2 0 0 1 -1.394 -0.391l0.064-1.026c1.053-6.795 3.108-9.673 3.748-9.673a0.316 0.316 0 0 1 0.244 0.132c0.457 0.486 0.869 2.161 0.657 5.4-0.25 3.484-1.49 5.562-3.32 5.562zm-8.338 19.088a0.425 0.425 0 0 1 -0.281 -0.232c-0.485-0.785-0.561-3.245 1.219-6.806a15.333 15.333 0 0 1 2.143 -3.214c-1.03 6.637-2.49 9.972-3.08 10.256zm22.624-2.779a2.76 2.76 0 0 1 -2.038 0.916h-0.106a2.408 2.408 0 0 1 -1.9 -0.837 3.857 3.857 0 0 1 -0.583 -3.126 5.928 5.928 0 0 1 4.95 -5 7.024 7.024 0 0 1 1.012 3.342 6.342 6.342 0 0 1 -1.32 4.709zm-30.7-14.2c-0.706-0.257-1.436-1.93-0.9-8.442 0.288-3.707 0.407-5.851-0.485-6.815a1.624 1.624 0 0 0 -1.243 -0.51c-2.142 0-4.206 2.607-5.643 5.732a62.81 62.81 0 0 1 0.461 -6.927 10.828 10.828 0 0 0 5.118 -5.162c1.819-3.574 1.584-7.381 0.411-9.294a2.047 2.047 0 0 0 -1.662 -1.146c-2.716 0-5.229 5.687-6.433 14.522a8.746 8.746 0 0 1 -3.616 0.077 5.491 5.491 0 0 1 -0.89 -0.235 6.813 6.813 0 0 0 2.914 -5.475 5.949 5.949 0 0 0 -1.413 -4.5 7.23 7.23 0 0 0 -5.263 -2.1c-0.119 0-0.24-0.006-0.361-0.006-4.451 0-9.152 2.4-9.529 6.991-0.385 4.034 3.193 6.385 6.653 8.658l0.694 0.457c3.307 2.219 6.235 4.528 5.763 8.348-0.383 3.135-4.333 5.658-8.542 5.332a7.314 7.314 0 0 1 -5.2 -2.563 6.728 6.728 0 0 1 -1.433 -5.144c0.267-1.976 1.129-3.487 3.094-5.41a1.247 1.247 0 0 0 0.507 -1.26 0.774 0.774 0 0 0 -0.986 -0.382 8.416 8.416 0 0 0 -3.021 1.228 7.592 7.592 0 0 0 -2.281 5.182c-0.237 4.214 1.929 9.557 8.814 10.745a12.471 12.471 0 0 0 2.091 0.179c5.606 0 10.063-3.777 10.369-8.787 0.271-4.7-3.352-7.339-6.772-9.45l-0.375-0.227c-3.318-2.01-6.453-3.908-5.965-7.635 0.385-2.85 3.109-4.125 5.637-4.125 0.179 0 0.358 0.006 0.539 0.017 2.8 0.18 4.368 1.782 4.409 4.513a4.361 4.361 0 0 1 -1.04 3.078 1.484 1.484 0 0 1 -0.984 0.5 0.982 0.982 0 0 1 -0.833 -0.659 3.925 3.925 0 0 1 -0.063 -2.181l0.081-0.25a1.078 1.078 0 0 0 0.039 -1.033 0.641 0.641 0 0 0 -0.54 -0.254 1.824 1.824 0 0 0 -0.389 0.053 3.031 3.031 0 0 0 -2.288 2.588c-0.086 2.378 1.342 5.12 5.606 5.688a14.426 14.426 0 0 0 4.374 -0.04c-0.272 2.5-0.447 5.151-0.521 7.891-0.034 1.627-0.061 2.582-0.081 3.3-0.03 1.081-0.046 1.618-0.046 3.075 0 1.246 0.184 1.688 1.222 1.688 0.569 0 1.547-0.477 1.6-2.208 1.03-6.823 3.849-10.595 4.576-10.633a6.662 6.662 0 0 1 -0.06 2.078c-0.1 0.949-0.22 2.13-0.25 3.55-0.125 5.843 1.006 8.811 3.452 9.075 1.211 0.149 1.437-0.4 1.482-0.624a0.981 0.981 0 0 0 -0.78 -1.063zm-7.48-19.314c0.975-6.274 2.444-9.839 2.989-10.085a0.779 0.779 0 0 1 0.292 0.409 8.868 8.868 0 0 1 -0.816 6.674 8.174 8.174 0 0 1 -2.47 3.002zm-25.743 4.341l-0.149-0.192a0.975 0.975 0 0 0 -0.823 -0.288c-0.871 0-2.3 0.416-2.428 1.512-0.121 0.765-0.25 2.065-0.342 3.452-0.653 5.234-2.2 8.13-3.025 8.13a0.924 0.924 0 0 1 -0.733 -0.341c-1.068-1.212-1.183-5.218-0.341-11.9l0.017-0.272-0.149-0.173a0.967 0.967 0 0 0 -0.776 -0.255c-0.882 0-2.33 0.42-2.46 1.553a39.062 39.062 0 0 0 -0.19 6.827c-0.593 1.9-1.922 4.984-4.317 4.984a2.365 2.365 0 0 1 -1.7 -0.787 7.231 7.231 0 0 1 -1.486 -5.14c0.162-3.7 1.283-6.605 2.554-6.605a0.718 0.718 0 0 1 0.66 0.286c0.4 0.57 0.226 1.958-0.153 3.028l-0.085 0.227a1.106 1.106 0 0 0 -0.088 1.071 0.753 0.753 0 0 0 0.9 0.215c0.746-0.139 2.269-0.94 2.4-1.938a5.186 5.186 0 0 0 -1.028 -3.689 2.91 2.91 0 0 0 -2.228 -0.921c-3.25 0-5.889 3.8-6.142 8.84-0.011 0.323-0.008 0.636 0 0.94-0.887 3.469-1.614 4.68-1.9 4.94-0.238-0.4-0.552-2.322 0.432-7.49l0.023-0.277-0.15-0.173a1.1 1.1 0 0 0 -0.865 -0.276 2.166 2.166 0 0 0 -2.285 1.415 7.63 7.63 0 0 0 -0.1 0.873l-0.024 0.315c-0.553 3.1-1.664 4.722-2.477 4.722a0.7 0.7 0 0 1 -0.441 -0.28c-0.668-0.755-1.243-2.725-0.93-5.267 0.409-3.416 1.8-5.711 3.449-5.711a1.2 1.2 0 0 1 1.007 0.332 2.289 2.289 0 0 1 -0.076 1.838l-0.05 0.135a1.291 1.291 0 0 0 -0.116 1.23 0.818 0.818 0 0 0 0.9 0.233c0.751-0.141 2.27-1.026 2.4-2.031a3.174 3.174 0 0 0 -0.82 -2.4 3.753 3.753 0 0 0 -2.864 -1.055c-2.827 0-6.365 2.139-7.02 8.2-1.059 3.52-2.406 5.159-2.982 5.159-0.762 0-1.956-2.252-2.253-7.255a51.587 51.587 0 0 0 5.367 -12.886c0.824-3.547 1.377-9.307 0.024-11.009a1.359 1.359 0 0 0 -1.09 -0.56c-3.947 0-7.127 12.153-7.669 20.868a27.239 27.239 0 0 0 0.058 4.037c-0.884 4.186-2.549 6.852-3.315 6.852-0.716 0-1.839-2.136-2.122-6.881a49.183 49.183 0 0 0 5.112 -12.272c0.786-3.384 1.311-8.88 0.018-10.508a1.32 1.32 0 0 0 -1.057 -0.541c-3.774 0-6.812 11.589-7.328 19.9-0.348 6.009 1.305 10.023 2.826 11.634a2.949 2.949 0 0 0 2.084 1.07c1.842 0 3.5-2.5 4.574-5.107 0.962 3.124 2.6 5.128 4.281 5.128 1.282 0 2.661-1.237 3.876-3.441 0.728 2.059 2.158 3.127 3.395 3.127 0.054 0 0.108 0 0.17-0.007 1.179-0.1 2.307-1.015 3.258-2.606 0.384 2.143 1.215 3.415 2.3 3.415 1.318 0 2.429-1.845 3.229-3.772a5.526 5.526 0 0 0 4.906 3.384c2.064 0 4.039-1.473 5.54-4.09 0.923 3.044 2.593 3.538 3.579 3.538s1.945-0.712 2.814-2.049l-0.029 0.277a29.309 29.309 0 0 0 -5.631 9.629c-1.05 2.935-1.025 6.062 0.062 7.606a1.932 1.932 0 0 0 1.6 0.911c1.85 0 4.649-2.534 7.579-24.439 0.46-3.182 0.8-6.653 0.8-6.653zm-47.986 1.988c0.36-6.165 2.415-14.455 3.449-15.846 0.291 0.879 0.341 4.073-0.64 7.848a55.12 55.12 0 0 1 -2.809 7.998zm8.741-0.488c0.359-6.57 2.574-15.468 3.662-16.826 0.321 0.863 0.4 4.251-0.656 8.3a58.051 58.051 0 0 1 -3.006 8.526zm34.268 15.591c-1.115 7.679-2.342 10.906-2.905 11.133a0.516 0.516 0 0 1 -0.31 -0.25c-0.466-0.67-0.614-2.328 0.368-4.973a35.7 35.7 0 0 1 2.847 -5.91zm-13.049 2.2a1.143 1.143 0 0 0 -0.671 -0.317 0.758 0.758 0 0 0 -0.66 0.563 5.046 5.046 0 0 1 -0.244 0.473c-0.598 1.077-2.534 1.627-5.756 1.627a88.106 88.106 0 0 1 -13.181 -1.5c-5.3-0.9-11.342-1.861-16.306-2.207a105.26 105.26 0 0 0 2.024 -15.684c0-0.594-0.9-0.727-1.22-0.727-0.4 0-1.707 0.165-1.785 2.288l-0.132 2.544c-0.466 2.514-1.867 6.761-6.016 6.964-0.093 0.005-0.185 0.007-0.277 0.007a5.248 5.248 0 0 1 -4.081 -1.842c-1.966-2.223-2.795-6.368-2.215-11.088a25.264 25.264 0 0 1 1.078 -4.794c6.623-0.152 12.936-3.159 14.472-6.93a4.171 4.171 0 0 0 -0.195 -3.949c-0.9-1.34-2.717-1.935-4.95-1.636-4.624 0.6-9.214 4.479-11.788 9.939-2.911-0.823-5.416-3.3-4.78-6.646 0.918-4.905 7.433-6.508 9.575-6.508a1.885 1.885 0 0 1 0.626 0.07 2.67 2.67 0 0 0 0.929 0.17 1.052 1.052 0 0 0 1.163 -0.659c0.163-0.721-0.817-1.187-1.195-1.366a2.92 2.92 0 0 0 -1.152 -0.172c-2.92 0-11.343 2.038-12.655 8.6a6.678 6.678 0 0 0 0.917 5.222 9.34 9.34 0 0 0 5.666 3.549 23.972 23.972 0 0 0 -1.224 5.5c-0.54 4.97 0.538 9.365 2.956 12.06a8.379 8.379 0 0 0 6.408 2.821h0.3a8.436 8.436 0 0 0 5.82 -2.626 47.557 47.557 0 0 1 -0.822 4.789q-0.544-0.009-1.06-0.009c-5.931 0-9.245 1.227-10.428 3.856a4.409 4.409 0 0 0 0.28 4.364 6.276 6.276 0 0 0 5.219 2.765 5.958 5.958 0 0 0 0.968 -0.079c3.221-0.576 5.467-3.345 7.048-8.7a111.32 111.32 0 0 1 16.325 2.306c0.975 0.2 1.958 0.412 2.939 0.621 5.341 1.137 10.386 2.21 14.055 2.21 2.11 0 3.572-0.365 4.466-1.112a2.6 2.6 0 0 0 1.028 -2.183 3.435 3.435 0 0 0 -1.468 -2.572zm-44.088 6.835a3.357 3.357 0 0 1 -1.092 0.189 2.614 2.614 0 0 1 -2.33 -1.3 2.948 2.948 0 0 1 0.23 -3.01c0.541-0.877 2.266-1.914 7.354-2-1.041 3.447-2.442 5.503-4.162 6.121zm3.331-40.608a4.79 4.79 0 0 1 0.836 -0.081 1.728 1.728 0 0 1 1.5 0.617 2.406 2.406 0 0 1 -0.12 2.21c-1.309 2.744-6.05 4.726-10 5.039 1.948-4.166 5.017-7.258 7.784-7.785z" transform="translate(-14.75 -9.688)" class="cls-1"/></svg><svg width="17" viewBox="0 0 16.687 16.688" height="17" id="main-header_search-hover" y="253"><defs><style>.cls-1 {        fill: #333;        fill-rule: evenodd;      }</style></defs><path id="main-header_search-hover-&#x41B;&#x443;&#x43F;&#x430;" d="m280.16 663.75h-0.76l-0.264-0.261a6.218 6.218 0 1 0 -0.675 0.674l0.263 0.262v0.755l4.773 4.76 1.423-1.422zm-5.731 0a4.292 4.292 0 1 1 4.3 -4.291 4.294 4.294 0 0 1 -4.31 4.29z" transform="translate(-268.22 -653.25)" class="cls-1"/></svg><svg width="17" viewBox="0 0 16.687 16.688" height="17" id="main-header_search" y="270"><defs><style>.cls-1 {        fill: #fff;        fill-rule: evenodd;      }</style></defs><path id="main-header_search-&#x41B;&#x443;&#x43F;&#x430;" d="m638.16 40.747h-0.76l-0.264-0.261a6.21 6.21 0 1 0 -0.675 0.675l0.263 0.262v0.755l4.773 4.76 1.423-1.422zm-5.731 0a4.291 4.291 0 1 1 4.3 -4.291 4.294 4.294 0 0 1 -4.31 4.291z" transform="translate(-626.22 -30.25)" class="cls-1"/></svg><svg width="47" viewBox="0 0 47.406 47.38" height="47" id="seo_logo_cow" y="287"><defs><style>.cls-1 {        fill: #323232;        fill-rule: evenodd;      }</style></defs><path id="seo_logo_cow-&#x41A;&#x43E;&#x440;&#x43E;&#x432;&#x430;" d="m499.58 1349a2.42 2.42 0 0 1 -2.127 1.04 9.366 9.366 0 0 1 -3.256 -0.84 17.086 17.086 0 0 1 -1.576 8.35 5.2 5.2 0 0 1 0.517 3.08c-0.488 3.38-4.283 5.23-8.524 5.23s-8.018-1.85-8.48-5.23a5.164 5.164 0 0 1 0.33 -2.62 17.331 17.331 0 0 1 -1.786 -8.73 8.929 8.929 0 0 1 -3.065 0.76 2.42 2.42 0 0 1 -2.127 -1.04 2.328 2.328 0 0 1 -0.162 -2.22c0.812-1.91 3.593-2.74 4.75-3.01l0.1-0.02c-1.4-2.9-0.723-7.6-0.2-9.19l3.057 0.25c0.056 1 0.766 2.88 3.436 5.01l1.585 1.09a12.922 12.922 0 0 1 2.4 -0.23 12.732 12.732 0 0 1 2.289 0.21l1.692-1.16c2.67-2.13 3.38-4.01 3.435-5.01l3.058-0.26c0.528 1.6 1.207 6.35-0.224 9.24l0.294 0.07c1.157 0.27 3.937 1.1 4.75 3.01a2.326 2.326 0 0 1 -0.18 2.3zm-25.069-3.28s-2.859 0.66-3.362 1.85 3.155-0.14 3.835-0.7a2.326 2.326 0 0 1 -0.47 -1.1zm3.3 0.07c-1.752 2.75-1.578 7 0.467 11.37l0.367 0.78-0.318 0.8a3.209 3.209 0 0 0 -0.208 1.62c0.329 2.41 3.6 3.5 6.5 3.5s6.2-1.1 6.545-3.52a3.177 3.177 0 0 0 -0.33 -1.9l-0.416-0.84 0.378-0.86c1.878-4.25 1.97-8.37 0.244-11.02-1.3-1.99-3.575-3.04-6.587-3.04-3.05 0-5.35 1.1-6.64 3.1zm20.093 1.78c-0.5-1.19-3.361-1.85-3.361-1.85a2.318 2.318 0 0 1 -0.474 1.15c0.67 0.4 4.33 1.8 3.83 0.6zm-18.57-6.1s-3.6-2.48-3.735-5.02c-0.4 2.18-0.584 5.62 0.7 6.99a21 21 0 0 1 3.03 -2zm10.232-0.1s3.6-2.47 3.736-5.01c0.4 2.17 0.584 5.61-0.705 6.98a22.893 22.893 0 0 0 -3.04 -2zm-5.378-15.57a23.7 23.7 0 1 1 -23.7 23.7 23.7 23.7 0 0 1 23.7 -23.7zm0 45.4a21.7 21.7 0 1 1 21.7 -21.7 21.722 21.722 0 0 1 -21.7 21.7z" transform="translate(-460.47 -1325.8)" class="cls-1"/></svg><svg width="47" viewBox="0 0 47.375 47.38" height="47" id="seo_logo_ice-cream" y="334"><defs><style>.cls-1 {        fill: #323232;        fill-rule: evenodd;      }</style></defs><path id="seo_logo_ice-cream-&#x41C;&#x43E;&#x440;&#x43E;&#x436;&#x435;&#x43D;&#x43A;&#x43E;" d="m70.454 1335.4a8.575 8.575 0 0 0 -14.639 6.06v14.68a0.808 0.808 0 0 0 0.809 0.81h15.533a0.808 0.808 0 0 0 0.809 -0.81v-14.68a8.512 8.512 0 0 0 -2.512 -6.1zm0.894 19.93h-13.915v-10.89c0.045 0.05 0.092 0.1 0.143 0.16a2.619 2.619 0 0 0 4.309 0 1.185 1.185 0 0 1 0.946 -0.6 1 1 0 0 1 0.309 0.43 10.764 10.764 0 0 1 0.488 1.22 9.6 9.6 0 0 0 0.7 1.65 1.753 1.753 0 0 0 3.237 0 9.614 9.614 0 0 0 0.7 -1.65 10.67 10.67 0 0 1 0.488 -1.22 1 1 0 0 1 0.309 -0.43 1.186 1.186 0 0 1 0.946 0.6 3.205 3.205 0 0 0 1.346 1v9.73zm-9.006 8.58a2.049 2.049 0 1 0 4.1 0v-6.16h-4.1v6.16zm2.158-38.1a23.7 23.7 0 1 1 -23.7 23.7 23.7 23.7 0 0 1 23.7 -23.7zm0 45.4a21.7 21.7 0 1 1 21.7 -21.7 21.722 21.722 0 0 1 -21.7 21.7z" transform="translate(-40.813 -1325.8)" class="cls-1"/></svg><svg width="47" viewBox="0 0 47.375 47.38" height="47" id="seo_logo_leaf" y="381"><defs><style>.cls-1 {        fill: #323232;        fill-rule: evenodd;      }</style></defs><path id="seo_logo_leaf-&#x41B;&#x438;&#x441;&#x442;&#x438;&#x43A;" d="m64.437 1498.6s-22.24-10.18 0-32.75c22.241 22.6 0 32.8 0 32.8zm7.516-17.18-6.537 4.16l-0.021 3.68 6.894-4.41a13.366 13.366 0 0 0 -0.336 -3.5zm-15.39 3.19 6.833 4.48v-3.62l-6.453-4.15a13.627 13.627 0 0 0 -0.38 3.2zm6.833-1.52v-3.63l-4.396-3.4a21.745 21.745 0 0 0 -1.464 3.24zm0-6.09v-7.04a39.181 39.181 0 0 0 -3.356 4.42zm2 0.28 3.63-2.6a39.493 39.493 0 0 0 -3.63 -4.82v7.42zm0.021 2.3l-0.021 3.68 5.981-3.85a21.739 21.739 0 0 0 -1.337 -3.01zm6.443 7.9-6.443 4.1l-0.021 4.16a15.3 15.3 0 0 0 6.463 -8.3zm-8.463 8.2v-4.21l-6.417-4.13c1.105 4.1 4.32 6.9 6.42 8.3zm1.1-36.9a23.7 23.7 0 1 1 -23.7 23.7 23.7 23.7 0 0 1 23.703 -23.7zm0 45.4a21.7 21.7 0 1 1 21.7 -21.7 21.722 21.722 0 0 1 -21.697 21.7z" transform="translate(-40.813 -1458.8)" class="cls-1"/></svg><svg width="47" viewBox="0 0 47.406 47.38" height="47" id="seo_logo_thermometer" y="428"><defs><style>.cls-1 {        fill: #323232;        fill-rule: evenodd;      }</style></defs><path id="seo_logo_thermometer-&#x413;&#x440;&#x430;&#x434;&#x443;&#x441;&#x43D;&#x438;&#x43A;" d="m484.02 1497.3a6.814 6.814 0 0 1 -6.823 -6.77 8.038 8.038 0 0 1 1.822 -4.6v-14.84a5 5 0 0 1 10 0v14.91a7.629 7.629 0 0 1 1.778 4.53 6.775 6.775 0 0 1 -6.78 6.8zm0-2a4.8 4.8 0 0 1 -4.8 -4.77 5.237 5.237 0 0 1 1.845 -3.78v-15.66a3 3 0 0 1 6 0v15.72a5.092 5.092 0 0 1 1.754 3.72 4.8 4.8 0 0 1 -4.79 4.8zm2.706-4.91a2.774 2.774 0 1 1 -3.675 -2.61v-16.84a0.949 0.949 0 0 1 1.9 0v16.87a2.765 2.765 0 0 1 1.77 2.5zm5.27-16.4h4a1 1 0 0 1 0 2h-4a1 1 0 0 1 0 -2zm0-4h4a1 1 0 0 1 0 2h-4a1 1 0 0 1 0 -2zm0 8h4a1 1 0 0 1 0 2h-4a1 1 0 0 1 0 -2zm0 4h4a1 1 0 0 1 0 2h-4a1 1 0 0 1 0 -2zm-7.817-23.2a23.7 23.7 0 1 1 -23.7 23.7 23.7 23.7 0 0 1 23.7 -23.7zm0 45.4a21.7 21.7 0 1 1 21.7 -21.7 21.722 21.722 0 0 1 -21.7 21.7z" transform="translate(-460.47 -1458.8)" class="cls-1"/></svg></svg>
